<svg xmlns="http://www.w3.org/2000/svg" viewBox="0 0 64 64" fill="none">
  <!-- Owl body -->
  <circle cx="32" cy="36" r="22" fill="#3B82F6"/>
  
  <!-- Temple crown -->
  <path d="M16 18 L20 14 L20 20 L24 14 L24 20 L28 14 L28 20 L32 12 L36 20 L36 14 L40 20 L40 14 L44 20 L44 14 L48 18 L48 24 L16 24 Z" fill="#3B82F6"/>
  
  <!-- Eyes (white circles with dark pupils) -->
  <circle cx="24" cy="34" r="8" fill="white"/>
  <circle cx="40" cy="34" r="8" fill="white"/>
  <circle cx="25" cy="34" r="4" fill="#1E3A5F"/>
  <circle cx="41" cy="34" r="4" fill="#1E3A5F"/>
  
  <!-- Beak -->
  <path d="M32 40 L28 46 L32 52 L36 46 Z" fill="#F59E0B"/>
  
  <!-- Ear tufts -->
  <path d="M14 26 Q12 18, 18 22" stroke="#3B82F6" stroke-width="3" fill="none" stroke-linecap="round"/>
  <path d="M50 26 Q52 18, 46 22" stroke="#3B82F6" stroke-width="3" fill="none" stroke-linecap="round"/>
</svg>
